<?xml version="1.0" encoding="utf-8"?>
<!-- Generator: Adobe Illustrator 25.3.1, SVG Export Plug-In . SVG Version: 6.00 Build 0)  -->
<svg version="1.1" id="Livello_1" xmlns="http://www.w3.org/2000/svg" xmlns:xlink="http://www.w3.org/1999/xlink" x="0px" y="0px"
	 width="182.7px" height="65px" viewBox="0 0 182.7 65" style="enable-background:new 0 0 182.7 65;" xml:space="preserve">
<style type="text/css">
	.st0{fill:#00ADFF;}
	.st1{fill:#DDDDDD;}
</style>
<g>
	<path class="st0" d="M170.7,8.5h3V5.4c0-0.5,0-1,0-1.4c-0.2,0.5-0.5,0.9-0.7,1.4L170.7,8.5z"/>
	<path class="st0" d="M173.1,0c-3.9,0-7.1,3.2-7.1,7.1s3.2,7.1,7.1,7.1c3.9,0,7.1-3.2,7.1-7.1C180.2,3.1,177,0,173.1,0z M174.9,9.4
		v2.5h-1.2V9.4h-4.3V8.6l4.1-5.9h1.3v5.7h1.3l0.1,1H174.9z"/>
</g>
<g>
	<polygon class="st1" points="66.8,61.7 64.1,55.7 63.6,55.7 66.6,62.2 67.1,62.2 69.8,55.7 69.3,55.7 	"/>
	<path class="st1" d="M73.3,55.5c-1,0-1.8,0.3-2.4,0.9C70.3,57,70,57.8,70,58.8s0.3,1.8,0.8,2.4c0.6,0.6,1.4,0.9,2.4,0.9
		c0.7,0,1.4-0.1,1.9-0.4c0.6-0.3,1-0.9,1.2-1.6h-0.5c-0.2,0.5-0.5,0.9-1,1.2s-1,0.4-1.6,0.4c-1.8,0-2.7-0.9-2.7-2.8h6v-0.4
		c0-1-0.3-1.7-0.9-2.3C75,55.8,74.3,55.5,73.3,55.5z M70.5,58.7c0.1-0.8,0.3-1.5,0.8-1.9c0.5-0.5,1.1-0.7,1.9-0.7s1.4,0.2,1.9,0.7
		s0.7,1.1,0.7,1.9H70.5z"/>
	<path class="st1" d="M82.1,56.2c-0.5-0.4-1.1-0.5-1.8-0.5c-1.2,0-2,0.4-2.5,1.3v-1.2h-0.4v6.4h0.5v-3.6c0-0.8,0.2-1.4,0.7-1.8
		c0.4-0.5,1-0.7,1.8-0.7c0.6,0,1.2,0.2,1.6,0.5s0.6,0.8,0.6,1.4v4.2h0.5v-4.4C82.9,57,82.7,56.5,82.1,56.2z"/>
	<path class="st1" d="M87.2,55.5c-1,0-1.8,0.3-2.4,0.9c-0.6,0.6-0.9,1.4-0.9,2.4s0.3,1.8,0.9,2.4c0.6,0.6,1.4,0.9,2.4,0.9
		s1.8-0.3,2.4-0.9c0.6-0.6,0.9-1.4,0.9-2.4s-0.3-1.8-0.9-2.4C89,56,88.2,55.5,87.2,55.5z M89.3,61c-0.5,0.5-1.2,0.8-2.1,0.8
		s-1.6-0.3-2.1-0.8s-0.8-1.2-0.8-2.1c0-0.9,0.3-1.6,0.8-2.1s1.2-0.8,2.1-0.8s1.6,0.3,2.1,0.8s0.8,1.2,0.8,2.1
		C90,59.8,89.8,60.5,89.3,61z"/>
	<rect x="99.6" y="55.7" class="st1" width="0.5" height="6.5"/>
	<path class="st1" d="M99.6,53.4c-1.9,0.2-2.9,1-2.9,2.5v0.5h-0.9v0.4h0.9v5.4h0.5v-5.4h1.5v-0.4h-1.5v-0.5c0-1.3,0.8-1.9,2.5-2v0.4
		c0,0.1,0.1,0.2,0.2,0.2s0.2-0.1,0.3-0.2v-0.9c-0.2-0.2-0.3-0.2-0.4-0.2S99.6,53.3,99.6,53.4z"/>
	<rect x="101.4" y="53.2" class="st1" width="0.5" height="8.9"/>
	<path class="st1" d="M106,55.5c-1,0-1.8,0.3-2.4,0.9c-0.6,0.6-0.9,1.4-0.9,2.4s0.3,1.8,0.8,2.4c0.6,0.6,1.4,0.9,2.4,0.9
		c0.7,0,1.4-0.1,1.9-0.4c0.6-0.3,1-0.9,1.2-1.6h-0.5c-0.2,0.5-0.5,0.9-1,1.2s-1,0.4-1.6,0.4c-1.8,0-2.7-0.9-2.7-2.8h6v-0.4
		c0-1-0.3-1.7-0.9-2.3C107.8,55.8,107,55.5,106,55.5z M103.2,58.7c0.1-0.8,0.3-1.5,0.8-1.9s1.1-0.7,1.9-0.7s1.4,0.2,1.9,0.7
		s0.7,1.1,0.7,1.9H103.2z"/>
	<path class="st1" d="M121.8,55.5c-1.1,0-1.9,0.4-2.3,1.3c-0.3-0.9-1-1.3-2.1-1.3s-1.9,0.4-2.3,1.3v-1.1h-0.5v6.4h0.5v-3.6
		c0-0.7,0.2-1.3,0.5-1.7c0.4-0.5,0.9-0.8,1.6-0.8c1.2,0,1.9,0.6,1.9,1.9v4.2h0.5v-4c0-0.6,0.2-1.2,0.6-1.5c0.4-0.4,0.9-0.6,1.6-0.6
		c1.2,0,1.8,0.6,1.8,1.9v4.2h0.5v-4.4C124.2,56.4,123.4,55.5,121.8,55.5z"/>
	<path class="st1" d="M131,57.2c-0.5-1-1.4-1.6-2.7-1.6c-1,0-1.8,0.3-2.4,1c-0.5,0.6-0.8,1.4-0.8,2.4s0.3,1.8,0.8,2.4
		c0.6,0.7,1.3,1,2.3,1c1.3,0,2.2-0.5,2.8-1.6v1.4h0.5v-6.6H131V57.2z M130.3,61c-0.5,0.6-1.2,0.9-2,0.9s-1.5-0.3-2-0.9
		c-0.4-0.5-0.7-1.2-0.7-2.1c0-0.8,0.2-1.5,0.7-2.1s1.1-0.9,2-0.9c0.9,0,1.6,0.3,2.1,0.8s0.7,1.2,0.7,2.2
		C131,59.8,130.8,60.5,130.3,61z"/>
	<path class="st1" d="M137.7,56.2c-0.5-0.4-1.1-0.5-1.8-0.5c-1.2,0-2,0.4-2.5,1.3v-1.2h-0.5v6.4h0.5v-3.6c0-0.8,0.2-1.4,0.7-1.8
		c0.4-0.5,1-0.7,1.8-0.7c0.6,0,1.2,0.2,1.6,0.5c0.4,0.3,0.6,0.8,0.6,1.4v4.2h0.5v-4.4C138.5,57,138.2,56.5,137.7,56.2z"/>
	<path class="st1" d="M145.4,57.2c-0.5-1-1.4-1.5-2.7-1.5c-1,0-1.8,0.3-2.4,1c-0.5,0.6-0.8,1.4-0.8,2.4s0.3,1.8,0.8,2.4
		c0.6,0.7,1.3,1,2.3,1c1.3,0,2.2-0.5,2.8-1.6v1.3h0.5v-6.6h-0.5L145.4,57.2L145.4,57.2z M144.6,61c-0.5,0.6-1.2,0.9-2,0.9
		s-1.5-0.3-2-0.9c-0.4-0.5-0.7-1.2-0.7-2.1c0-0.8,0.2-1.5,0.7-2.1s1.1-0.9,2-0.9s1.6,0.3,2.1,0.8s0.7,1.2,0.7,2.2
		C145.4,59.8,145.1,60.5,144.6,61z"/>
	<path class="st1" d="M152.6,56.8c-0.2-0.4-0.6-0.7-1-0.9c-0.4-0.3-1-0.4-1.5-0.4c-1,0-1.8,0.3-2.3,0.9c-0.6,0.6-0.8,1.4-0.8,2.4
		s0.3,1.7,0.8,2.3s1.3,0.9,2.3,0.9c0.6,0,1.1-0.1,1.6-0.4c0.5-0.2,0.9-0.6,1.1-1v1.2c0,1.5-0.9,2.2-2.6,2.2c-1.5,0-2.3-0.6-2.4-1.7
		h-0.5c0,0.8,0.4,1.4,0.9,1.7c0.5,0.3,1.1,0.4,1.9,0.4c2,0,3-0.9,3-2.6v-6.2h-0.5V56.8z M151.9,60.8c-0.5,0.5-1.2,0.8-2,0.8
		s-1.5-0.3-1.9-0.8s-0.6-1.2-0.6-2s0.2-1.5,0.7-2c0.5-0.6,1.2-0.8,2-0.8s1.4,0.3,1.9,0.8c0.5,0.6,0.7,1.2,0.7,2
		C152.7,59.7,152.4,60.4,151.9,60.8z"/>
	<path class="st1" d="M157.2,55.5c-1,0-1.8,0.3-2.4,0.9c-0.6,0.6-0.9,1.4-0.9,2.4s0.3,1.8,0.8,2.4c0.6,0.6,1.4,0.9,2.4,0.9
		c0.7,0,1.4-0.1,1.9-0.4c0.6-0.3,1-0.9,1.2-1.6h-0.5c-0.2,0.5-0.5,0.9-1,1.2s-1,0.4-1.6,0.4c-1.8,0-2.7-0.9-2.7-2.8h6v-0.4
		c0-1-0.3-1.7-0.9-2.3C159,55.8,158.2,55.5,157.2,55.5z M154.5,58.7c0.1-0.8,0.3-1.5,0.8-1.9s1.1-0.7,1.9-0.7s1.4,0.2,1.9,0.7
		s0.7,1.1,0.7,1.9H154.5z"/>
	<path class="st1" d="M162.4,56.2c-0.3,0.3-0.5,0.5-0.7,0.9v-1.4h-0.5v6.4h0.5v-2.6c0-1,0.2-1.8,0.6-2.4c0.5-0.8,1.2-1.1,2.2-1.1
		v-0.4C163.7,55.5,163,55.8,162.4,56.2z"/>
	<polygon class="st1" points="80.8,43.6 96.5,7.2 94.5,7.1 79.9,40.9 64.9,7.2 62.9,7.2 79,43.6 	"/>
	<polygon class="st1" points="99.2,43.6 101.2,43.6 101.2,25.6 120.9,25.6 120.9,23.7 101.2,23.7 101.2,8.9 124.2,8.9 124.2,7.2 
		99.2,7.2 	"/>
	<polygon class="st1" points="162.6,7.2 145.7,41.1 128.8,7.2 126.4,7.2 126.4,43.6 128.3,43.6 128.3,10.4 144.8,43.6 146.6,43.6 
		163.1,10.4 163.1,43.6 165,43.6 165,7.2 	"/>
	<path class="st1" d="M16.8,34.5c-0.5,0-0.9,0.4-0.9,0.9v0.9h1.9v-0.9C17.7,34.9,17.3,34.5,16.8,34.5z"/>
	<path class="st1" d="M21.8,60.7c0,1.4,1.1,2.7,2.6,2.7h10.2c1.4,0,2.6-1.3,2.6-2.7v-8.3H21.8V60.7z M26.7,54.7h5.5
		c0.3,0,0.5,0.3,0.5,0.5c0,0.3-0.3,0.5-0.5,0.5h-5.5c-0.3,0-0.5-0.3-0.5-0.5S26.4,54.7,26.7,54.7z"/>
	<path class="st1" d="M47.1,17.1c-4.6,0-8.3,3.7-8.3,8.3c0,1.4,0.3,2.6,0.9,3.7L31,35.5V17.7c4.4-0.5,7.8-4.3,7.8-8.8
		c0-4.8-4-8.8-8.8-8.8s-8.8,4-8.8,8.9c0,4.4,3.2,8.1,7.5,8.7v11.1l-11.8-8.9c0.5-1.4,0.8-3,0.4-4.6c-0.6-3.2-3.2-5.9-6.5-6.5
		C5,7.7,0,12.7,1.1,18.5c0.6,3.2,3.2,5.9,6.5,6.5s6.4-0.8,8.2-3.1L26.4,30c1.4,1.1,2.3,2.8,2.3,4.7v8.5l-4.4-3.4
		c0.2-0.6,0.3-1.3,0.3-1.9c0-4.3-3.5-7.7-7.7-7.7c-4.3,0-7.7,3.5-7.7,7.7s3.5,7.7,7.7,7.7c2.7,0,5.2-1.4,6.5-3.7l3.1,2.3
		c1.2,0.9,2,2.3,2.2,3.7c-3.5,0-7.1,0-7.1,0c-0.5,0-0.9,0.4-0.9,0.9v1.4c0,0.5,0.4,0.9,0.9,0.9h15.8c0.5,0,0.9-0.4,0.9-0.9v-1.4
		c0-0.5-0.4-0.9-0.9-0.9c0,0-3.3,0-6.4,0v-6.8c0-1.8,0.9-3.5,2.3-4.6l7.9-5.5c1.5,1.6,3.7,2.6,6,2.6c4.6,0,8.3-3.7,8.3-8.3
		C55.4,20.9,51.7,17.1,47.1,17.1z M11.9,17.2c0,0.1-0.1,0.1-0.2,0.2l-3.9,2.8C7.5,20.4,7.2,20.3,7,20c-0.1-0.1-0.2-0.2-0.2-0.3v-5.6
		c0-0.2,0.1-0.4,0.3-0.5c0.2-0.1,0.4-0.1,0.6,0.1l3.9,2.8C12,16.6,12.1,17,11.9,17.2z M18.1,41h-2.8c-0.7,0-1.4-0.4-1.4-1.2v-2.2
		c0-0.6,0.4-1,0.9-1.1v-1c0-1,0.9-1.9,1.9-1.9s1.9,0.9,1.9,1.9v1c0.5,0.2,0.9,0.6,0.9,1.1l0.1,2.2C19.6,40.6,18.8,41,18.1,41z
		 M26,6.2h8c0.3,0,0.6,0.3,0.6,0.6S34.3,7.4,34,7.4h-8c-0.3,0-0.6-0.3-0.6-0.6C25.4,6.4,25.6,6.2,26,6.2z M26,8.5h8
		c0.3,0,0.6,0.3,0.6,0.6S34.3,9.7,34,9.7h-8c-0.3,0-0.6-0.3-0.6-0.6C25.4,8.7,25.6,8.5,26,8.5z M30.6,11.9H26
		c-0.3,0-0.6-0.3-0.6-0.6s0.3-0.6,0.6-0.6h4.6c0.3,0,0.6,0.3,0.6,0.6S30.9,11.9,30.6,11.9z M48.2,23.9v3.9c0,0.5-0.3,0.9-0.8,1.2
		s-0.9,0.4-1.5,0.4s-1.1-0.2-1.5-0.4c-0.4-0.2-0.8-0.7-0.8-1.2s0.3-0.9,0.8-1.2c0.4-0.3,0.9-0.4,1.5-0.4c0.4,0,0.8,0.1,1.1,0.2v-4.5
		l3.4-0.8v2.3h0.1L48.2,23.9z"/>
</g>
</svg>
