/* XPM */
static char * close_active_xpm[] = {
"32 32 10 1",
" 	c None",
".	c #212222",
"+	c #0A0A0A",
"@	c #151515",
"#	c #E1E1E1",
"$	c #686868",
"%	c #676767",
"&	c #FCFCFC",
"*	c #6E6E6E",
"=	c #FBFBFB",
"................................",
"++++++++++++++++++++++++++++++++",
"++++++++++++++++++++++++++++++++",
"++++++++++++++++++++++++++++++++",
"++++++++++++++++++++++++++++++++",
"++++++++++++++++++++++++++++++++",
"++++++++++++++++++++++++++++++++",
"++++++++++++++++++++++++++++++++",
"++++++++++++++++++++++++++++++++",
"++++++++++++++++++++++++++++++++",
"+++++++++++@++++++++@+++++++++++",
"++++++++++@#$++++++$#@++++++++++",
"+++++++++++%&*++++%&*+++++++++++",
"++++++++++++%&*++%&*++++++++++++",
"+++++++++++++%&*%&*+++++++++++++",
"++++++++++++++$==$++++++++++++++",
"++++++++++++++$==$++++++++++++++",
"+++++++++++++%&*%&*+++++++++++++",
"++++++++++++%&*++%&*++++++++++++",
"+++++++++++%&*++++%&*+++++++++++",
"++++++++++@#$++++++$#@++++++++++",
"+++++++++++@++++++++@+++++++++++",
"++++++++++++++++++++++++++++++++",
"++++++++++++++++++++++++++++++++",
"++++++++++++++++++++++++++++++++",
"++++++++++++++++++++++++++++++++",
"++++++++++++++++++++++++++++++++",
"++++++++++++++++++++++++++++++++",
"++++++++++++++++++++++++++++++++",
"++++++++++++++++++++++++++++++++",
"++++++++++++++++++++++++++++++++",
"++++++++++++++++++++++++++++++++"};
