/* XPM */
static char * close_inactive_xpm[] = {
"32 32 9 1",
" 	c None",
".	c #212222",
"+	c #0A0A0A",
"@	c #121212",
"#	c #A6A6A6",
"$	c #4E4E4E",
"%	c #BABABA",
"&	c #535353",
"*	c #B9B9B9",
"................................",
"++++++++++++++++++++++++++++++++",
"++++++++++++++++++++++++++++++++",
"++++++++++++++++++++++++++++++++",
"++++++++++++++++++++++++++++++++",
"++++++++++++++++++++++++++++++++",
"++++++++++++++++++++++++++++++++",
"++++++++++++++++++++++++++++++++",
"++++++++++++++++++++++++++++++++",
"++++++++++++++++++++++++++++++++",
"+++++++++++@++++++++@+++++++++++",
"++++++++++@#$++++++$#@++++++++++",
"+++++++++++$%&++++$%&+++++++++++",
"++++++++++++$%&++$%&++++++++++++",
"+++++++++++++$%&$%&+++++++++++++",
"++++++++++++++$**$++++++++++++++",
"++++++++++++++$**$++++++++++++++",
"+++++++++++++$%&$%&+++++++++++++",
"++++++++++++$%&++$%&++++++++++++",
"+++++++++++$%&++++$%&+++++++++++",
"++++++++++@#$++++++$#@++++++++++",
"+++++++++++@++++++++@+++++++++++",
"++++++++++++++++++++++++++++++++",
"++++++++++++++++++++++++++++++++",
"++++++++++++++++++++++++++++++++",
"++++++++++++++++++++++++++++++++",
"++++++++++++++++++++++++++++++++",
"++++++++++++++++++++++++++++++++",
"++++++++++++++++++++++++++++++++",
"++++++++++++++++++++++++++++++++",
"++++++++++++++++++++++++++++++++",
"++++++++++++++++++++++++++++++++"};
