/* XPM */
static char * close_prelight_xpm[] = {
"32 32 20 1",
" 	c None",
".	c #212222",
"+	c #0A0A0A",
"@	c #0B0B0B",
"#	c #161616",
"$	c #222222",
"%	c #292929",
"&	c #2D2D2D",
"*	c #2A2A2A",
"=	c #2F2F2F",
"-	c #1E1E1E",
";	c #1D1D1D",
">	c #383838",
",	c #E6E6E6",
"'	c #7F7F7F",
")	c #7E7E7E",
"!	c #FDFDFD",
"~	c #848484",
"{	c #212121",
"]	c #FCFCFC",
"................................",
"++++++++++++++++++++++++++++++++",
"++++++++++++++++++++++++++++++++",
"++++++++++++++++++++++++++++++++",
"++++++++++++++++++++++++++++++++",
"++++++++++++++++++++++++++++++++",
"+++++++++++@#$%&&%$#@+++++++++++",
"++++++++++#*========*#++++++++++",
"+++++++++-============-+++++++++",
"++++++++-==============;++++++++",
"+++++++#===>========>===#+++++++",
"++++++@*==>,'======',>==*@++++++",
"++++++#====)!~====)!~====#++++++",
"++++++$=====)!~==)!~====={++++++",
"++++++%======)!~)!~======%++++++",
"++++++&=======']]'=======&++++++",
"++++++&=======']]'=======&++++++",
"++++++%======)!~)!~======%++++++",
"++++++$=====)!~==)!~====={++++++",
"++++++#====)!~====)!~====#++++++",
"++++++@*==>,'======',>==*@++++++",
"+++++++#===>========>===#+++++++",
"++++++++-==============;++++++++",
"+++++++++-============;+++++++++",
"++++++++++#*========*#++++++++++",
"+++++++++++@#{%&&%{#@+++++++++++",
"++++++++++++++++++++++++++++++++",
"++++++++++++++++++++++++++++++++",
"++++++++++++++++++++++++++++++++",
"++++++++++++++++++++++++++++++++",
"++++++++++++++++++++++++++++++++",
"++++++++++++++++++++++++++++++++"};
