/* XPM */
static char * hide_prelight_xpm[] = {
"32 32 15 1",
" 	c None",
".	c #212222",
"+	c #0A0A0A",
"@	c #0B0B0B",
"#	c #161616",
"$	c #222222",
"%	c #292929",
"&	c #2D2D2D",
"*	c #2A2A2A",
"=	c #2F2F2F",
"-	c #1E1E1E",
";	c #1D1D1D",
">	c #212121",
",	c #444444",
"'	c #FFFFFF",
"................................",
"++++++++++++++++++++++++++++++++",
"++++++++++++++++++++++++++++++++",
"++++++++++++++++++++++++++++++++",
"++++++++++++++++++++++++++++++++",
"++++++++++++++++++++++++++++++++",
"+++++++++++@#$%&&%$#@+++++++++++",
"++++++++++#*========*#++++++++++",
"+++++++++-============-+++++++++",
"++++++++-==============;++++++++",
"+++++++#================#+++++++",
"++++++@*================*@++++++",
"++++++#==================#++++++",
"++++++$==================>++++++",
"++++++%==================%++++++",
"++++++&==================&++++++",
"++++++&===,,,,,,,,,,,,===&++++++",
"++++++%===''''''''''''===%++++++",
"++++++$===,,,,,,,,,,,,===>++++++",
"++++++#==================#++++++",
"++++++@*================*@++++++",
"+++++++#================#+++++++",
"++++++++-==============;++++++++",
"+++++++++-============;+++++++++",
"++++++++++#*========*#++++++++++",
"+++++++++++@#>%&&%>#@+++++++++++",
"++++++++++++++++++++++++++++++++",
"++++++++++++++++++++++++++++++++",
"++++++++++++++++++++++++++++++++",
"++++++++++++++++++++++++++++++++",
"++++++++++++++++++++++++++++++++",
"++++++++++++++++++++++++++++++++"};
