/* XPM */
static char *maximize_xpm[] = {
"32 32 13 1",
" 	c None",
"1	c #212222",
"2	c #0A0A0A",
"3	c #363636",
"4	c #636363",
"5	c #151515",
"6	c #212121",
"7	c #323232",
"8	c #BCBCBC",
"9	c #9B9B9B",
"A	c #909090",
"B	c #B2B2B2",
"C	c #595959",
"11111111111111111111111111111111",
"22222222222222222222222222222222",
"22222222222222222222222222222222",
"22222222222222222222222222222222",
"22222222222222222222222222222222",
"22222222222222222222222222222222",
"22222222222222222222222222222222",
"22222222222222222222222222222222",
"22222222222222222222222222222222",
"22222222222222222222222222222222",
"22222222222222222222222222222222",
"22222222222222444444422222222222",
"22222222222222222222422222222222",
"22222222222222222222422222222222",
"22222222222888888B22422222222222",
"22222222222822222B22422222222222",
"22222222222822222B22422222222222",
"22222222222822222822422222222222",
"22222222222822222822222222222222",
"22222222222822222822222222222222",
"22222222222888888822222222222222",
"22222222222222222222222222222222",
"22222222222222222222222222222222",
"22222222222222222222222222222222",
"22222222222222222222222222222222",
"22222222222222222222222222222222",
"22222222222222222222222222222222",
"22222222222222222222222222222222",
"22222222222222222222222222222222",
"22222222222222222222222222222222",
"22222222222222222222222222222222",
"22222222222222222222222222222222"
};
