/* XPM */
static char *maximize_xpm[] = {
"32 32 6 1",
" 	c None",
"1	c #212222",
"2	c #0A0A0A",
"3	c #BCBCBC",
"4	c #595959",
"5	c #363636",
"11111111111111111111111111111111",
"22222222222222222222222222222222",
"22222222222222222222222222222222",
"22222222222222222222222222222222",
"22222222222222222222222222222222",
"22222222222222222222222222222222",
"22222222222222222222222222222222",
"22222222222222222222222222222222",
"22222222222222222222222222222222",
"22222222222222222222222222222222",
"22222222222222222222222222222222",
"22222222222333333333322222222222",
"22222222222322222222322222222222",
"22222222222322222222322222222222",
"22222222222322222222322222222222",
"22222222222322222222322222222222",
"22222222222322222222322222222222",
"22222222222322222222322222222222",
"22222222222322222222322222222222",
"22222222222322222222322222222222",
"22222222222333333333322222222222",
"22222222222222222222222222222222",
"22222222222222222222222222222222",
"22222222222222222222222222222222",
"22222222222222222222222222222222",
"22222222222222222222222222222222",
"22222222222222222222222222222222",
"22222222222222222222222222222222",
"22222222222222222222222222222222",
"22222222222222222222222222222222",
"22222222222222222222222222222222",
"22222222222222222222222222222222"
};
