/* XPM */
static char *maximize_xpm[] = {
"32 32 23 1",
" 	c None",
"B	c #212222",
"C	c #0A0A0A",
"D	c #0B0B0B",
"E	c #161616",
"F	c #222222",
"G	c #292929",
"H	c #2D2D2D",
"I	c #2A2A2A",
"J	c #2F2F2F",
"K	c #1E1E1E",
"L	c #1D1D1D",
"M	c #636363",
"N	c #979797",
"O	c #3C3C3C",
"P	c #494949",
"Q	c #5D5D5D",
"R	c #212121",
"S	c #FFFFFF",
"T	c #D9D9D9",
"U	c #CCCCCC",
"V	c #F3F3F3",
"W	c #8A8A8A",
"BBBBBBBBBBBBBBBBBBBBBBBBBBBBBBBB",
"CCCCCCCCCCCCCCCCCCCCCCCCCCCCCCCC",
"CCCCCCCCCCCCCCCCCCCCCCCCCCCCCCCC",
"CCCCCCCCCCCCCCCCCCCCCCCCCCCCCCCC",
"CCCCCCCCCCCCCCCCCCCCCCCCCCCCCCCC",
"CCCCCCCCCCCCCCCCCCCCCCCCCCCCCCCC",
"CCCCCCCCCCCDEFGHHGFEDCCCCCCCCCCC",
"CCCCCCCCCCEIJJJJJJJJIECCCCCCCCCC",
"CCCCCCCCCKJJJJJJJJJJJJKCCCCCCCCC",
"CCCCCCCCKJJJJJJJJJJJJJJLCCCCCCCC",
"CCCCCCCEJJJJJJJJJJJJJJJJECCCCCCC",
"CCCCCCDIJJJJJJNNNNNNNJJJIDCCCCCC",
"CCCCCCEJJJJJJJJJJJJJNJJJJECCCCCC",
"CCCCCCFJJJJJJJJJJJJJNJJJJRCCCCCC",
"CCCCCCGJJJJSSSSSSVJJNJJJJGCCCCCC",
"CCCCCCHJJJJSJJJJJSJJNJJJJHCCCCCC",
"CCCCCCHJJJJSJJJJJSJJNJJJJHCCCCCC",
"CCCCCCGJJJJSJJJJJSJJNJJJJGCCCCCC",
"CCCCCCFJJJJSJJJJJSJJJJJJJRCCCCCC",
"CCCCCCEJJJJSJJJJJSJJJJJJJECCCCCC",
"CCCCCCDIJJJSSSSSSSJJJJJJIDCCCCCC",
"CCCCCCCEJJJJJJJJJJJJJJJJECCCCCCC",
"CCCCCCCCKJJJJJJJJJJJJJJLCCCCCCCC",
"CCCCCCCCCKJJJJJJJJJJJJLCCCCCCCCC",
"CCCCCCCCCCEIJJJJJJJJIECCCCCCCCCC",
"CCCCCCCCCCCDERGHHGREDCCCCCCCCCCC",
"CCCCCCCCCCCCCCCCCCCCCCCCCCCCCCCC",
"CCCCCCCCCCCCCCCCCCCCCCCCCCCCCCCC",
"CCCCCCCCCCCCCCCCCCCCCCCCCCCCCCCC",
"CCCCCCCCCCCCCCCCCCCCCCCCCCCCCCCC",
"CCCCCCCCCCCCCCCCCCCCCCCCCCCCCCCC",
"CCCCCCCCCCCCCCCCCCCCCCCCCCCCCCCC"
};
