/* XPM */
static char *menu_xpm[] = {
"32 32 14 1",
" 	c None",
"1	c #212222",
"2	c #0A0A0A",
"3	c #0B0B0B",
"4	c #161616",
"5	c #222222",
"6	c #292929",
"7	c #2D2D2D",
"8	c #2A2A2A",
"9	c #2F2F2F",
"A	c #1E1E1E",
"B	c #1D1D1D",
"C	c #EEE4E4",
"D	c #212121",
"11111111111111111111111111111111",
"22222222222222222222222222222222",
"22222222222222222222222222222222",
"22222222222222222222222222222222",
"22222222222222222222222222222222",
"22222222222222222222222222222222",
"22222222222345677654322222222222",
"22222222224899999999842222222222",
"222222222A999999999999A222222222",
"22222222A99999999999999B22222222",
"22222224999999999999999942222222",
"22222238999999999999999983222222",
"22222249999CCCCCCCCCC99994222222",
"2222225999999999999999999D222222",
"22222269999999999999999996222222",
"22222279999999999999999997222222",
"22222279999CCCCCCCCCC99997222222",
"22222269999999999999999996222222",
"2222225999999999999999999D222222",
"22222249999999999999999994222222",
"22222238999CCCCCCCCCC99983222222",
"22222224999999999999999942222222",
"22222222A99999999999999B22222222",
"222222222A999999999999B222222222",
"22222222224899999999842222222222",
"2222222222234D6776D4322222222222",
"22222222222222222222222222222222",
"22222222222222222222222222222222",
"22222222222222222222222222222222",
"22222222222222222222222222222222",
"22222222222222222222222222222222",
"22222222222222222222222222222222"
};
