/* XPM */
static char * stick_prelight_xpm[] = {
"32 32 23 1",
" 	c None",
".	c #212222",
"+	c #0A0A0A",
"@	c #0B0B0B",
"#	c #161616",
"$	c #222222",
"%	c #292929",
"&	c #2D2D2D",
"*	c #2A2A2A",
"=	c #2F2F2F",
"-	c #1E1E1E",
";	c #1D1D1D",
">	c #3C3C3C",
",	c #828282",
"'	c #212121",
")	c #E5E5E5",
"!	c #FFFFFF",
"~	c #E4E4E4",
"{	c #848484",
"]	c #838383",
"^	c #818181",
"/	c #E3E3E3",
"(	c #3B3B3B",
"................................",
"++++++++++++++++++++++++++++++++",
"++++++++++++++++++++++++++++++++",
"++++++++++++++++++++++++++++++++",
"++++++++++++++++++++++++++++++++",
"++++++++++++++++++++++++++++++++",
"+++++++++++@#$%&&%$#@+++++++++++",
"++++++++++#*========*#++++++++++",
"+++++++++-============-+++++++++",
"++++++++-==============;++++++++",
"+++++++#================#+++++++",
"++++++@*================*@++++++",
"++++++#==================#++++++",
"++++++$=======>,,>======='++++++",
"++++++%======>)!!~>======%++++++",
"++++++&======{!!!!,======&++++++",
"++++++&======]!!!!^======&++++++",
"++++++%======>~!!/(======%++++++",
"++++++$=======>^^(======='++++++",
"++++++#==================#++++++",
"++++++@*================*@++++++",
"+++++++#================#+++++++",
"++++++++-==============;++++++++",
"+++++++++-============;+++++++++",
"++++++++++#*========*#++++++++++",
"+++++++++++@#'%&&%'#@+++++++++++",
"++++++++++++++++++++++++++++++++",
"++++++++++++++++++++++++++++++++",
"++++++++++++++++++++++++++++++++",
"++++++++++++++++++++++++++++++++",
"++++++++++++++++++++++++++++++++",
"++++++++++++++++++++++++++++++++"};
