/* XPM */
static char * stick_toggled_prelight_xpm[] = {
"32 32 25 1",
" 	c None",
".	c #212222",
"+	c #0A0A0A",
"@	c #0B0B0B",
"#	c #161616",
"$	c #222222",
"%	c #292929",
"&	c #2D2D2D",
"*	c #2A2A2A",
"=	c #2F2F2F",
"-	c #1E1E1E",
";	c #1D1D1D",
">	c #4C4C4C",
",	c #828282",
"'	c #808080",
")	c #F9F9F9",
"!	c #FFFFFF",
"~	c #7F7F7F",
"{	c #212121",
"]	c #F8F8F8",
"^	c #4B4B4B",
"/	c #848484",
"(	c #818181",
"_	c #4A4A4A",
":	c #7E7E7E",
"................................",
"++++++++++++++++++++++++++++++++",
"++++++++++++++++++++++++++++++++",
"++++++++++++++++++++++++++++++++",
"++++++++++++++++++++++++++++++++",
"++++++++++++++++++++++++++++++++",
"+++++++++++@#$%&&%$#@+++++++++++",
"++++++++++#*========*#++++++++++",
"+++++++++-============-+++++++++",
"++++++++-==============;++++++++",
"+++++++#================#+++++++",
"++++++@*================*@++++++",
"++++++#=======>,,>=======#++++++",
"++++++$======')!!)~======{++++++",
"++++++%=====>)!!!!]^=====%++++++",
"++++++&=====/!!!!!!,=====&++++++",
"++++++&=====,!!!!!!(=====&++++++",
"++++++%=====>)!!!!]_=====%++++++",
"++++++$======~]!!]:======{++++++",
"++++++#=======^,(_=======#++++++",
"++++++@*================*@++++++",
"+++++++#================#+++++++",
"++++++++-==============;++++++++",
"+++++++++-============;+++++++++",
"++++++++++#*========*#++++++++++",
"+++++++++++@#{%&&%{#@+++++++++++",
"++++++++++++++++++++++++++++++++",
"++++++++++++++++++++++++++++++++",
"++++++++++++++++++++++++++++++++",
"++++++++++++++++++++++++++++++++",
"++++++++++++++++++++++++++++++++",
"++++++++++++++++++++++++++++++++"};
