/* XPM */
static char * stick_toggled_active_xpm[] = {
"32 32 15 1",
" 	c None",
".	c #212222",
"+	c #0A0A0A",
"@	c #2C2C2C",
"#	c #6C6C6C",
"$	c #696969",
"%	c #F8F8F8",
"&	c #FFFFFF",
"*	c #686868",
"=	c #F7F7F7",
"-	c #2B2B2B",
";	c #6E6E6E",
">	c #6B6B6B",
",	c #2A2A2A",
"'	c #676767",
"................................",
"++++++++++++++++++++++++++++++++",
"++++++++++++++++++++++++++++++++",
"++++++++++++++++++++++++++++++++",
"++++++++++++++++++++++++++++++++",
"++++++++++++++++++++++++++++++++",
"++++++++++++++++++++++++++++++++",
"++++++++++++++++++++++++++++++++",
"++++++++++++++++++++++++++++++++",
"++++++++++++++++++++++++++++++++",
"++++++++++++++++++++++++++++++++",
"++++++++++++++++++++++++++++++++",
"++++++++++++++@##@++++++++++++++",
"+++++++++++++$%&&%*+++++++++++++",
"++++++++++++@%&&&&=-++++++++++++",
"++++++++++++;&&&&&&#++++++++++++",
"++++++++++++#&&&&&&>++++++++++++",
"++++++++++++@%&&&&=,++++++++++++",
"+++++++++++++*=&&='+++++++++++++",
"++++++++++++++-#>,++++++++++++++",
"++++++++++++++++++++++++++++++++",
"++++++++++++++++++++++++++++++++",
"++++++++++++++++++++++++++++++++",
"++++++++++++++++++++++++++++++++",
"++++++++++++++++++++++++++++++++",
"++++++++++++++++++++++++++++++++",
"++++++++++++++++++++++++++++++++",
"++++++++++++++++++++++++++++++++",
"++++++++++++++++++++++++++++++++",
"++++++++++++++++++++++++++++++++",
"++++++++++++++++++++++++++++++++",
"++++++++++++++++++++++++++++++++"};
