/* XPM */
static char * stick_toggled_inactive_xpm[] = {
"32 32 14 1",
" 	c None",
".	c #212222",
"+	c #0A0A0A",
"@	c #232323",
"#	c #525252",
"$	c #4F4F4F",
"%	c #B8B8B8",
"&	c #BDBDBD",
"*	c #B7B7B7",
"=	c #222222",
"-	c #535353",
";	c #515151",
">	c #212121",
",	c #4E4E4E",
"................................",
"++++++++++++++++++++++++++++++++",
"++++++++++++++++++++++++++++++++",
"++++++++++++++++++++++++++++++++",
"++++++++++++++++++++++++++++++++",
"++++++++++++++++++++++++++++++++",
"++++++++++++++++++++++++++++++++",
"++++++++++++++++++++++++++++++++",
"++++++++++++++++++++++++++++++++",
"++++++++++++++++++++++++++++++++",
"++++++++++++++++++++++++++++++++",
"++++++++++++++++++++++++++++++++",
"++++++++++++++@##@++++++++++++++",
"+++++++++++++$%&&%$+++++++++++++",
"++++++++++++@%&&&&*=++++++++++++",
"++++++++++++-&&&&&&#++++++++++++",
"++++++++++++#&&&&&&;++++++++++++",
"++++++++++++@%&&&&*>++++++++++++",
"+++++++++++++$*&&*,+++++++++++++",
"++++++++++++++=#;>++++++++++++++",
"++++++++++++++++++++++++++++++++",
"++++++++++++++++++++++++++++++++",
"++++++++++++++++++++++++++++++++",
"++++++++++++++++++++++++++++++++",
"++++++++++++++++++++++++++++++++",
"++++++++++++++++++++++++++++++++",
"++++++++++++++++++++++++++++++++",
"++++++++++++++++++++++++++++++++",
"++++++++++++++++++++++++++++++++",
"++++++++++++++++++++++++++++++++",
"++++++++++++++++++++++++++++++++",
"++++++++++++++++++++++++++++++++"};
